<svg xmlns="http://www.w3.org/2000/svg" version="1.1" xmlns:xlink="http://www.w3.org/1999/xlink" xmlns:svgjs="http://svgjs.dev/svgjs" width="2000" height="1252" viewBox="0 0 2000 1252"><g transform="matrix(1,0,0,1,-1.2121212121212466,-2.01935483870966)"><svg viewBox="0 0 396 248" data-background-color="#000000" preserveAspectRatio="xMidYMid meet" height="1252" width="2000" xmlns="http://www.w3.org/2000/svg" xmlns:xlink="http://www.w3.org/1999/xlink"><g id="tight-bounds" transform="matrix(1,0,0,1,0.2400000000000091,0.4000000000000057)"><svg viewBox="0 0 395.52 247.2" height="247.2" width="395.52"><g><svg></svg></g><g><svg viewBox="0 0 395.52 247.2" height="247.2" width="395.52"><g transform="matrix(1,0,0,1,158.17684033613443,47.215199999999996)"><svg viewBox="0 0 79.16631932773109 152.7696" height="152.7696" width="79.16631932773109"><g><svg viewBox="0 0 79.16631932773109 152.7696" height="152.7696" width="79.16631932773109"><g><svg viewBox="0 0 79.16631932773109 152.7696" height="152.7696" width="79.16631932773109"><g><svg viewBox="0 0 79.16631932773109 152.7696" height="152.7696" width="79.16631932773109"><g id="textblocktransform"><svg viewBox="0 0 79.16631932773109 152.7696" height="152.7696" width="79.16631932773109" id="textblock"><g><svg viewBox="0 0 79.16631932773109 152.7696" height="152.7696" width="79.16631932773109"><g transform="matrix(1,0,0,1,0,0)"><svg width="79.16631932773109" viewBox="0.98 -34.86 18.06 34.86" height="152.7696" data-palette-color="#d2d6dc"><path d="M5.96-9.67L4.44 0 0.98 0 6.49-34.86 13.48-34.86 19.04 0 15.58 0 14.06-9.67 5.96-9.67ZM9.06-31.74L7.37-20.39 6.27-12.79 13.75-12.79 12.7-20.41 10.99-31.74 9.06-31.74Z" opacity="1" transform="matrix(1,0,0,1,0,0)" fill="#d2d6dc" class="wordmark-text-0" data-fill-palette-color="primary" id="text-0"></path></svg></g></svg></g></svg></g></svg></g></svg></g></svg></g></svg></g><g><path d="M163.183 0c30.402 0 58.24 10.976 79.768 29.183l-11.147 0c-19.26-14.022-42.974-22.294-68.621-22.295-25.647 0-49.361 8.272-68.621 22.295l-11.147 0c21.528-18.206 49.366-29.183 79.768-29.183zM163.183 247.2c-30.402 0-58.24-10.976-79.768-29.183l11.147 0c19.26 14.022 42.974 22.294 68.621 22.295 25.647 0 49.361-8.272 68.621-22.295l11.147 0c-21.528 18.206-49.366 29.183-79.768 29.183z" fill="#d2d6dc" stroke="transparent" data-fill-palette-color="tertiary"></path></g></svg></g><defs></defs></svg><rect width="395.52" height="247.2" fill="none" stroke="none" visibility="hidden"></rect></g></svg></g></svg>